<svg xmlns="http://www.w3.org/2000/svg" version="1.1" xmlns:xlink="http://www.w3.org/1999/xlink" xmlns:svgjs="http://svgjs.dev/svgjs" width="1500" height="934" viewBox="0 0 1500 934"><g transform="matrix(1,0,0,1,-0.9467336683418353,-1.50645161290322)"><svg viewBox="0 0 398 248" data-background-color="#293040" preserveAspectRatio="xMidYMid meet" height="934" width="1500" xmlns="http://www.w3.org/2000/svg" xmlns:xlink="http://www.w3.org/1999/xlink"><g id="tight-bounds" transform="matrix(1,0,0,1,0.25120000000003984,0.4000000000000057)"><svg viewBox="0 0 395.52 247.2" height="247.2" width="395.52"><g><svg viewBox="0 0 397.49759999999986 NaN" height="247.2" width="395.52"><g><rect width="397.49759999999986" height="7.256293627144006" x="0" y="117.8755330553508" fill="#d5b263" opacity="1" stroke-width="0" stroke="transparent" fill-opacity="1" class="rect-yte-0" data-fill-palette-color="secondary" rx="1%" id="yte-0" data-palette-color="#d5b263"></rect></g><g transform="matrix(1,0,0,1,0.9887999999999693,144.1273597378456)"><svg viewBox="0 0 395.5199999999999 NaN" height="0" width="395.5199999999999"><g id="textblocktransform"><svg viewBox="0 0 395.5199999999999 NaN" height="0" width="395.5199999999999" id="textblock"><g><svg viewBox="0 0 395.5199999999999 80.46363482671174" height="80.46363482671174" width="395.5199999999999"><g transform="matrix(1,0,0,1,0,0)"><svg width="395.5199999999999" viewBox="2.9 -35.5 177.43 36.1" height="80.46363482671174" data-palette-color="#d5b263"><path d="M3.85 0Q3 0 3-1.05L3-1.05Q3-1.7 3.5-2.08 4-2.45 4.85-2.45L4.85-2.45 6.45-2.45 6.45-32.05 4.8-32.35Q3.8-32.55 3.35-32.9 2.9-33.25 2.9-33.9L2.9-33.9Q2.9-34.3 3.1-34.52 3.3-34.75 3.6-34.75L3.6-34.75 18.25-34.75Q23.3-34.75 26.38-32.1 29.45-29.45 29.45-24.6L29.45-24.6Q29.45-19.75 26.38-17.13 23.3-14.5 18.25-14.5L18.25-14.5 10.45-14.5 10.45-2.5 12.95-1.9Q13.8-1.7 14.15-1.43 14.5-1.15 14.5-0.65L14.5-0.65Q14.5 0 13.9 0L13.9 0 3.85 0ZM10.45-17.2L18-17.2Q21.5-17.2 23.43-19.23 25.35-21.25 25.35-24.6L25.35-24.6Q25.35-28 23.43-30.03 21.5-32.05 18-32.05L18-32.05 10.45-32.05 10.45-17.2ZM34.3 0Q33.5 0 33.5-1L33.5-1Q33.5-1.65 33.97-2 34.45-2.35 35.25-2.35L35.25-2.35 36.8-2.35 36.8-33.15 34.3-33.15Q33.5-33.15 33.5-34.15L33.5-34.15Q33.5-34.85 33.97-35.18 34.45-35.5 35.25-35.5L35.25-35.5 40.55-35.5 40.55-2.35 42.95-1.8Q43.65-1.65 43.97-1.38 44.3-1.1 44.3-0.6L44.3-0.6Q44.3 0 43.7 0L43.7 0 34.3 0ZM55.5 0.6Q52.35 0.6 50.1-1.2 47.85-3 47.85-6.25L47.85-6.25Q47.85-9.75 50.35-11.48 52.85-13.2 56.95-13.8L56.95-13.8 64-14.85 64-17.05Q64-19.5 62.5-21 61-22.5 58.3-22.5L58.3-22.5Q56.75-22.5 54.82-21.95 52.9-21.4 51.65-20.6L51.65-20.6 51.25-18.4Q51-16.95 49.95-16.95L49.95-16.95Q49.6-16.95 49.4-17.13 49.2-17.3 49.2-17.6L49.2-17.6 49.2-22.15Q51.2-23.35 53.82-24.15 56.45-24.95 58.85-24.95L58.85-24.95Q62.75-24.95 65.25-22.85 67.75-20.75 67.75-17L67.75-17 67.75-2.3 69.59-1.8Q70.3-1.6 70.62-1.33 70.95-1.05 70.95-0.6L70.95-0.6Q70.95 0 70.4 0L70.4 0 64.09 0 64.09-3.5 63.9-3.5Q62.55-1.65 60.4-0.53 58.25 0.6 55.5 0.6L55.5 0.6ZM56.65-1.95Q58.5-1.95 60.2-2.83 61.9-3.7 62.95-5.2 64-6.7 64-8.5L64-8.5 64-12.5 57.8-11.5Q54.85-11 53.25-9.83 51.65-8.65 51.65-6.45L51.65-6.45Q51.65-4.25 53.05-3.1 54.45-1.95 56.65-1.95L56.65-1.95ZM75.24 0Q74.44 0 74.44-1L74.44-1Q74.44-1.65 74.92-2 75.39-2.35 76.19-2.35L76.19-2.35 77.74-2.35 77.74-22.1 75.24-22.1Q74.44-22.1 74.44-23.1L74.44-23.1Q74.44-23.8 74.92-24.13 75.39-24.45 76.19-24.45L76.19-24.45 81.29-24.45 81.29-20.95 81.44-20.95Q85.69-24.95 90.19-24.95L90.19-24.95Q93.74-24.95 96.04-22.88 98.34-20.8 98.34-17.25L98.34-17.25 98.34-2.35 100.74-1.8Q102.09-1.5 102.09-0.6L102.09-0.6Q102.09 0 101.49 0L101.49 0 92.09 0Q91.29 0 91.29-1L91.29-1Q91.29-1.65 91.77-2 92.24-2.35 93.04-2.35L93.04-2.35 94.59-2.35 94.59-16.95Q94.59-19.4 93.17-20.88 91.74-22.35 89.09-22.35L89.09-22.35Q87.14-22.35 85.14-21.28 83.14-20.2 81.49-18.35L81.49-18.35 81.49-2.35 83.89-1.8Q84.59-1.65 84.92-1.38 85.24-1.1 85.24-0.6L85.24-0.6Q85.24 0 84.64 0L84.64 0 75.24 0ZM106.44 0Q105.64 0 105.64-1L105.64-1Q105.64-1.65 106.12-2 106.59-2.35 107.39-2.35L107.39-2.35 108.94-2.35 108.94-22.1 106.44-22.1Q105.64-22.1 105.64-23.1L105.64-23.1Q105.64-23.8 106.12-24.13 106.59-24.45 107.39-24.45L107.39-24.45 112.49-24.45 112.49-20.95 112.64-20.95Q116.89-24.95 121.39-24.95L121.39-24.95Q124.94-24.95 127.24-22.88 129.54-20.8 129.54-17.25L129.54-17.25 129.54-2.35 131.94-1.8Q133.29-1.5 133.29-0.6L133.29-0.6Q133.29 0 132.69 0L132.69 0 123.29 0Q122.49 0 122.49-1L122.49-1Q122.49-1.65 122.97-2 123.44-2.35 124.24-2.35L124.24-2.35 125.79-2.35 125.79-16.95Q125.79-19.4 124.37-20.88 122.94-22.35 120.29-22.35L120.29-22.35Q118.34-22.35 116.34-21.28 114.34-20.2 112.69-18.35L112.69-18.35 112.69-2.35 115.09-1.8Q115.79-1.65 116.12-1.38 116.44-1.1 116.44-0.6L116.44-0.6Q116.44 0 115.84 0L115.84 0 106.44 0ZM148.44 0.6Q144.89 0.6 142.19-0.93 139.49-2.45 137.99-5.3 136.49-8.15 136.49-12L136.49-12Q136.49-17.95 139.59-21.45 142.69-24.95 148.04-24.95L148.04-24.95Q152.89-24.95 155.69-22.1 158.49-19.25 158.49-14.5L158.49-14.5Q158.49-12.95 157.84-11.35L157.84-11.35 140.29-11.35Q140.29-6.75 142.64-4.3 144.99-1.85 148.59-1.85L148.59-1.85Q150.49-1.85 152.01-2.33 153.54-2.8 155.04-3.85L155.04-3.85Q155.14-3.9 155.46-4.1 155.79-4.3 156.09-4.3L156.09-4.3Q156.54-4.3 156.84-3.95 157.14-3.6 157.14-3.1L157.14-3.1Q157.14-2.2 155.59-1.25L155.59-1.25Q152.49 0.6 148.44 0.6L148.44 0.6ZM140.29-13.85L154.49-13.85Q154.69-14.3 154.69-15.25L154.69-15.25Q154.69-18.7 152.84-20.6 150.99-22.5 147.94-22.5L147.94-22.5Q144.74-22.5 142.64-20.18 140.54-17.85 140.29-13.85L140.29-13.85ZM163.58 0Q162.78 0 162.78-1L162.78-1Q162.78-1.65 163.26-2 163.73-2.35 164.53-2.35L164.53-2.35 166.08-2.35 166.08-22.1 163.58-22.1Q162.78-22.1 162.78-23.1L162.78-23.1Q162.78-23.8 163.26-24.13 163.73-24.45 164.53-24.45L164.53-24.45 169.63-24.45 169.63-19.5 169.78-19.5Q171.69-21.8 173.98-23.38 176.28-24.95 178.19-24.95L178.19-24.95Q179.23-24.95 179.78-24.43 180.33-23.9 180.33-23L180.33-23Q180.33-22.5 180.16-22.03 179.98-21.55 179.69-21.25L179.69-21.25Q174.44-21.25 169.83-16.8L169.83-16.8 169.83-2.35 172.23-1.8Q172.94-1.65 173.26-1.38 173.58-1.1 173.58-0.6L173.58-0.6Q173.58 0 172.98 0L172.98 0 163.58 0Z" opacity="1" transform="matrix(1,0,0,1,0,0)" fill="#d5b263" class="wordmark-text-0" data-fill-palette-color="primary" id="text-0"></path></svg></g></svg></g><g transform="matrix(1,0,0,1,75.54431999999998,99.45916788206254)"><svg viewBox="0 0 244.43135999999996 NaN" height="0" width="244.43135999999996"><g transform="matrix(1,0,0,1,0,0)"><svg width="0" viewBox="0 0 0 0" height="0" data-palette-color="#d5b263"><path d="M0 0" opacity="1" transform="matrix(1,0,0,1,0,0)" fill="#d5b263" class="slogan-text-1" data-fill-palette-color="secondary" id="text-1"></path></svg></g></svg></g></svg></g></svg></g><g transform="matrix(1,0,0,1,145.08794888090387,0)"><svg viewBox="0 0 107.32170223819213 98.88" height="98.88" width="107.32170223819213"><g><svg xmlns="http://www.w3.org/2000/svg" xmlns:xlink="http://www.w3.org/1999/xlink" version="1.1" x="8" y="0" viewBox="18 15.075 64 69.297" enable-background="new 0 0 100 100" xml:space="preserve" height="98.88" width="91.32170223819213" class="icon-icon-0" data-fill-palette-color="accent" id="icon-0"><g fill="#c9ad8b" data-fill-palette-color="accent"><path fill="#c9ad8b" d="M50 22.372C66.542 22.372 80 35.83 80 52.372S66.542 82.372 50 82.372 20 68.914 20 52.372 33.458 22.372 50 22.372M50 20.372C32.327 20.372 18 34.699 18 52.372S32.327 84.372 50 84.372 82 70.045 82 52.372 67.673 20.372 50 20.372" data-fill-palette-color="accent"></path><rect x="42" y="15.075" fill="#c9ad8b" width="16" height="2.517" data-fill-palette-color="accent"></rect><path fill="#c9ad8b" d="M80.011 35.359L79.556 34.622C79.256 34.174 78.875 33.436 78.333 32.726L77.479 31.541C77.19 31.113 76.799 30.705 76.443 30.258 76.073 29.82 75.71 29.35 75.278 28.928L74.012 27.61 72.657 26.385C72.222 25.966 71.741 25.618 71.292 25.261 70.834 24.917 70.42 24.543 69.975 24.261L68.746 23.432C67.996 22.9 67.3 22.572 66.846 22.288L66.117 21.868 67.053 20.1S67.374 20.183 67.92 20.374L68.901 20.734C69.287 20.867 69.715 21.03 70.147 21.272 70.591 21.494 71.072 21.74 71.568 22.023 72.076 22.288 72.561 22.642 73.073 22.997 73.575 23.363 74.134 23.698 74.607 24.151L76.101 25.458 77.451 26.913C77.915 27.376 78.27 27.921 78.65 28.413 79.023 28.916 79.38 29.383 79.673 29.895 79.98 30.392 80.243 30.876 80.485 31.319 80.75 31.759 80.916 32.17 81.05 32.532L81.422 33.47C81.621 33.994 81.712 34.308 81.712 34.308z" data-fill-palette-color="accent"></path><circle fill="#c9ad8b" cx="50" cy="52.372" r="3.5" data-fill-palette-color="accent"></circle><polygon fill="#c9ad8b" points="48.499,50.871 69.166,32.499 69.873,33.206 51.502,53.874  " data-fill-palette-color="accent"></polygon><polygon fill="#c9ad8b" points="48.593,53.962 36.554,41.149 37.216,40.4 51.406,50.78  " data-fill-palette-color="accent"></polygon></g></svg></g></svg></g><g><rect width="68.55482888090393" height="7.256293627144006" y="90.62370637285599" x="252.409651119096" fill="#d5b263" data-fill-palette-color="secondary"></rect><rect width="68.55482888090393" height="7.256293627144006" y="90.62370637285599" x="76.53311999999994" fill="#d5b263" data-fill-palette-color="secondary"></rect></g></svg></g><defs></defs></svg><rect width="395.52" height="247.2" fill="none" stroke="none" visibility="hidden"></rect></g></svg></g></svg>